<?xml version="1.0" encoding="UTF-8"?>
<level>
  <owner>Fistachka</owner>
  <repo>lion</repo>
  <version>v1.0.3</version>
  <next number="1" owner="Fistachka" repo="umka"/>
  <readme>
    <ru>b07162bd02cf92a7272910cd8507c8dd9bdc4d30f9b76c79a9841eed201b29c3</ru>
    <en>3337bb1a5cf35c046357235d7fd23dd7646e095b5887b37eda10417579141d98</en>
  </readme>
  <license>b1b99f5538d1fd3702219bff50c665196dfa42f6ee755c37fe41a6178d6bc6e5</license>
  <exercise number="1">
    <scale>major</scale>
    <bpm>124</bpm>
    <lowestNote>38</lowestNote>
    <tonalities>4</tonalities>
    <video name="1t.mp4" size="1584428" type="video/mp4" volume="0.5">20d47595d71f4c5ad8c3538cf1fadd0dc25653e8fcdd1b19348fb010ed1b060a</video>
    <notes>
      <note number="1" values="58" ticks="324" durationTicks="49" ppq="96" velocity="0.843"/>
      <note number="2" values="68" ticks="373" durationTicks="40" ppq="96" velocity="0.913"/>
      <note number="3" values="68" ticks="420" durationTicks="49" ppq="96" velocity="0.834"/>
      <note number="4" values="58" ticks="481" durationTicks="42" ppq="96" velocity="0.913"/>
      <note number="5" values="68" ticks="528" durationTicks="47" ppq="96" velocity="0.913"/>
      <note number="6" values="58" ticks="576" durationTicks="95" ppq="96" velocity="0.913"/>
      <note number="7" values="188" ticks="312" durationTicks="24" ppq="96" velocity="0.839"/>
    </notes>
  </exercise>
  <exercise number="2">
    <scale>major</scale>
    <bpm>124</bpm>
    <lowestNote>38</lowestNote>
    <tonalities>4</tonalities>
    <video name="2t.mp4" size="2294009" type="video/mp4" volume="0.5">61e3b48577294e77f427e94885668e76b75d18bfa873aea755aa6f9f16bd4f94</video>
    <notes>
      <note number="1" values="58" ticks="72" durationTicks="48" ppq="96" velocity="0.843"/>
      <note number="2" values="68" ticks="157" durationTicks="31" ppq="96" velocity="0.906"/>
      <note number="3" values="68" ticks="193" durationTicks="53" ppq="96" velocity="0.906"/>
      <note number="4" values="58" ticks="248" durationTicks="45" ppq="96" velocity="0.906"/>
      <note number="5" values="68" ticks="291" durationTicks="52" ppq="96" velocity="0.906"/>
      <note number="6" values="58" ticks="345" durationTicks="78" ppq="96" velocity="0.906"/>
      <note number="7" values="188" ticks="296" durationTicks="24" ppq="96" velocity="0.835"/>
    </notes>
  </exercise>
  <exercise number="3">
    <scale>major</scale>
    <bpm>124</bpm>
    <lowestNote>38</lowestNote>
    <tonalities>4</tonalities>
    <video name="3t.mp4" size="1637138" type="video/mp4" volume="0.5">eac80fb48b18568f1180fa9201e0b1b2799adb4c240408d9c6de76a08597f33b</video>
    <notes>
      <note number="1" values="58" ticks="75" durationTicks="51" ppq="96" velocity="0.843"/>
      <note number="2" values="68" ticks="125" durationTicks="41" ppq="96" velocity="0.906"/>
      <note number="3" values="68" ticks="172" durationTicks="47" ppq="96" velocity="0.906"/>
      <note number="4" values="58" ticks="220" durationTicks="49" ppq="96" velocity="0.906"/>
      <note number="5" values="68" ticks="268" durationTicks="49" ppq="96" velocity="0.906"/>
      <note number="6" values="58" ticks="317" durationTicks="71" ppq="96" velocity="0.906"/>
    </notes>
  </exercise>
  <exercise number="4">
    <scale>major</scale>
    <bpm>124</bpm>
    <lowestNote>38</lowestNote>
    <tonalities>4</tonalities>
    <video name="4t.mp4" size="2045394" type="video/mp4" volume="0.5">a6e6f98fb10efe904334c8c080de3e74dab18674a073d63346e083461833fab3</video>
    <notes>
      <note number="1" values="288" ticks="19" durationTicks="47" ppq="96" velocity="0.843"/>
      <note number="2" values="388" ticks="90" durationTicks="41" ppq="96" velocity="0.906"/>
      <note number="3" values="388" ticks="138" durationTicks="50" ppq="96" velocity="0.906"/>
      <note number="4" values="288" ticks="187" durationTicks="29" ppq="96" velocity="0.906"/>
      <note number="5" values="388" ticks="211" durationTicks="84" ppq="96" velocity="0.906"/>
      <note number="6" values="188,288" ticks="268" durationTicks="95" ppq="96" velocity="0.906"/>
      <note number="7" values="188" ticks="282" durationTicks="24" ppq="96" velocity="0.835"/>
    </notes>
  </exercise>
  <exercise number="5">
    <scale>major</scale>
    <bpm>124</bpm>
    <lowestNote>38</lowestNote>
    <tonalities>4</tonalities>
    <video name="5t.mp4" size="1915754" type="video/mp4" volume="0.5">d823912bf4be2c8d187d0971aab243227327e8719caeb4ba7fa14e0091f5566f</video>
    <notes>
      <note number="1" values="78" ticks="52" durationTicks="51" ppq="96" velocity="0.843"/>
      <note number="2" values="288" ticks="102" durationTicks="41" ppq="96" velocity="0.906"/>
      <note number="3" values="288" ticks="150" durationTicks="49" ppq="96" velocity="0.906"/>
      <note number="4" values="188" ticks="211" durationTicks="39" ppq="96" velocity="0.906"/>
      <note number="5" values="288" ticks="252" durationTicks="56" ppq="96" velocity="0.906"/>
      <note number="6" values="188" ticks="306" durationTicks="111" ppq="96" velocity="0.906"/>
      <note number="7" values="188" ticks="311" durationTicks="26" ppq="96" velocity="0.857"/>
    </notes>
  </exercise>
  <exercise number="6">
    <scale>major</scale>
    <bpm>124</bpm>
    <lowestNote>38</lowestNote>
    <tonalities>4</tonalities>
    <video name="6t.mp4" size="2262791" type="video/mp4" volume="0.5">e74b813ff583b18bbe60d986a83e62cdc0bf477600a0b753e902bc188db4f9fb</video>
    <notes>
      <note number="1" values="78" ticks="34" durationTicks="51" ppq="96" velocity="0.843"/>
      <note number="2" values="68" ticks="96" durationTicks="49" ppq="96" velocity="0.906"/>
      <note number="3" values="188" ticks="144" durationTicks="119" ppq="96" velocity="0.906"/>
      <note number="4" values="68" ticks="270" durationTicks="73" ppq="96" velocity="0.906"/>
      <note number="5" values="78" ticks="335" durationTicks="176" ppq="96" velocity="0.906"/>
      <note number="6" values="58" ticks="530" durationTicks="81" ppq="96" velocity="0.906"/>
      <note number="7" values="68" ticks="595" durationTicks="181" ppq="96" velocity="0.906"/>
    </notes>
  </exercise>
  <exercise number="7">
    <scale>major</scale>
    <bpm>124</bpm>
    <lowestNote>38</lowestNote>
    <tonalities>4</tonalities>
    <video name="7t.mp4" size="2003105" type="video/mp4" volume="0.5">b1c0b1fb4dbf1a8b513d9f93db4f0e812c5bee4f13567951384579953e3eb156</video>
    <notes>
      <note number="1" values="78" ticks="33" durationTicks="51" ppq="96" velocity="0.843"/>
      <note number="2" values="68" ticks="97" durationTicks="49" ppq="96" velocity="0.906"/>
      <note number="3" values="188" ticks="144" durationTicks="130" ppq="96" velocity="0.906"/>
      <note number="4" values="68" ticks="288" durationTicks="73" ppq="96" velocity="0.906"/>
      <note number="5" values="78" ticks="348" durationTicks="176" ppq="96" velocity="0.906"/>
      <note number="6" values="58" ticks="535" durationTicks="95" ppq="96" velocity="0.906"/>
    </notes>
  </exercise>
  <exercise number="8">
    <scale>major</scale>
    <bpm>124</bpm>
    <lowestNote>38</lowestNote>
    <tonalities>4</tonalities>
    <video name="8t.mp4" size="2157263" type="video/mp4" volume="0.5">2ecf81367ba1a7e5b553fc785c53e115d6f7de6b4ae3a7bdef4d633bf82c6a05</video>
    <notes>
      <note number="1" values="78" ticks="33" durationTicks="51" ppq="96" velocity="0.843"/>
      <note number="2" values="68" ticks="97" durationTicks="49" ppq="96" velocity="0.906"/>
      <note number="3" values="188" ticks="144" durationTicks="130" ppq="96" velocity="0.906"/>
      <note number="4" values="68" ticks="288" durationTicks="73" ppq="96" velocity="0.906"/>
      <note number="5" values="78" ticks="348" durationTicks="176" ppq="96" velocity="0.906"/>
      <note number="6" values="58" ticks="535" durationTicks="95" ppq="96" velocity="0.906"/>
      <note number="7" values="68" ticks="601" durationTicks="181" ppq="96" velocity="0.906"/>
    </notes>
  </exercise>
  <exercise number="9">
    <scale>major</scale>
    <bpm>124</bpm>
    <lowestNote>38</lowestNote>
    <tonalities>4</tonalities>
    <video name="9t.mp4" size="1704876" type="video/mp4" volume="0.5">12fdcc3e1818e9207d6d9a88ba1e54f5d158158d60ee7bfcab2e0a8b384a5e90</video>
    <notes>
      <note number="1" values="78" ticks="33" durationTicks="51" ppq="96" velocity="0.843"/>
      <note number="2" values="68" ticks="97" durationTicks="49" ppq="96" velocity="0.906"/>
      <note number="3" values="188" ticks="144" durationTicks="130" ppq="96" velocity="0.906"/>
      <note number="4" values="68" ticks="288" durationTicks="73" ppq="96" velocity="0.906"/>
      <note number="5" values="78" ticks="348" durationTicks="176" ppq="96" velocity="0.906"/>
      <note number="6" values="58" ticks="535" durationTicks="95" ppq="96" velocity="0.906"/>
      <note number="7" values="68" ticks="601" durationTicks="181" ppq="96" velocity="0.906"/>
    </notes>
  </exercise>
  <exercise number="10">
    <scale>major</scale>
    <bpm>124</bpm>
    <lowestNote>38</lowestNote>
    <tonalities>4</tonalities>
    <video name="10t.mp4" size="1540963" type="video/mp4" volume="0.5">695b5ba800df96af6aba9f11f8497ab44db650660e31cac7d65b6556e1350b5a</video>
    <notes>
      <note number="1" values="78" ticks="33" durationTicks="51" ppq="96" velocity="0.843"/>
      <note number="2" values="68" ticks="97" durationTicks="49" ppq="96" velocity="0.906"/>
      <note number="3" values="188" ticks="144" durationTicks="130" ppq="96" velocity="0.906"/>
      <note number="4" values="68" ticks="288" durationTicks="73" ppq="96" velocity="0.906"/>
      <note number="5" values="78" ticks="348" durationTicks="176" ppq="96" velocity="0.906"/>
      <note number="6" values="58" ticks="535" durationTicks="95" ppq="96" velocity="0.906"/>
      <note number="7" values="68" ticks="601" durationTicks="181" ppq="96" velocity="0.906"/>
    </notes>
  </exercise>
  <exercise number="11">
    <scale>major</scale>
    <bpm>124</bpm>
    <lowestNote>38</lowestNote>
    <tonalities>4</tonalities>
    <video name="11t.mp4" size="1611894" type="video/mp4" volume="0.5">4df68313d8bd0ae1cf1afdde49b7082db285fcb0985cffab7d18e6974021c9e0</video>
    <notes>
      <note number="1" values="78" ticks="33" durationTicks="51" ppq="96" velocity="0.843"/>
      <note number="2" values="68" ticks="97" durationTicks="49" ppq="96" velocity="0.906"/>
      <note number="3" values="188" ticks="144" durationTicks="130" ppq="96" velocity="0.906"/>
      <note number="4" values="68" ticks="288" durationTicks="73" ppq="96" velocity="0.906"/>
      <note number="5" values="78" ticks="348" durationTicks="176" ppq="96" velocity="0.906"/>
      <note number="6" values="58" ticks="535" durationTicks="95" ppq="96" velocity="0.906"/>
    </notes>
  </exercise>
  <exercise number="12">
    <scale>major</scale>
    <bpm>124</bpm>
    <lowestNote>38</lowestNote>
    <tonalities>4</tonalities>
    <video name="12t.mp4" size="1257233" type="video/mp4" volume="0.5">3d7ff72f5ca3565086db2c58dcefa2d59e131e4f12d844410dbb27a9f1c62c44</video>
    <notes>
      <note number="1" values="78" ticks="33" durationTicks="51" ppq="96" velocity="0.843"/>
      <note number="2" values="68" ticks="97" durationTicks="49" ppq="96" velocity="0.906"/>
      <note number="3" values="188" ticks="144" durationTicks="130" ppq="96" velocity="0.906"/>
      <note number="4" values="68" ticks="288" durationTicks="73" ppq="96" velocity="0.906"/>
      <note number="5" values="78" ticks="348" durationTicks="176" ppq="96" velocity="0.906"/>
      <note number="6" values="58" ticks="535" durationTicks="95" ppq="96" velocity="0.906"/>
      <note number="7" values="68" ticks="601" durationTicks="181" ppq="96" velocity="0.906"/>
    </notes>
  </exercise>
  <exercise number="13">
    <scale>major</scale>
    <bpm>124</bpm>
    <lowestNote>38</lowestNote>
    <tonalities>4</tonalities>
    <video name="13t.mp4" size="2450586" type="video/mp4" volume="0.5">7fdd9bff39d84e113f9bc13d198a07f362e144c748ceb0c40418d173f2adf0d8</video>
    <notes>
      <note number="1" values="78" ticks="33" durationTicks="51" ppq="96" velocity="0.843"/>
      <note number="2" values="68" ticks="97" durationTicks="49" ppq="96" velocity="0.906"/>
      <note number="3" values="188" ticks="144" durationTicks="130" ppq="96" velocity="0.906"/>
      <note number="4" values="68" ticks="288" durationTicks="73" ppq="96" velocity="0.906"/>
      <note number="5" values="78,188" ticks="348" durationTicks="176" ppq="96" velocity="0.906"/>
      <note number="6" values="58" ticks="535" durationTicks="95" ppq="96" velocity="0.906"/>
      <note number="7" values="68" ticks="601" durationTicks="181" ppq="96" velocity="0.906"/>
      <note number="8" values="188" ticks="331" durationTicks="62" ppq="96" velocity="0.835"/>
      <note number="9" values="188" ticks="768" durationTicks="95" ppq="96" velocity="0.835"/>
      <note number="10" values="188" ticks="864" durationTicks="95" ppq="96" velocity="0.835"/>
      <note number="11" values="188" ticks="960" durationTicks="95" ppq="96" velocity="0.835"/>
      <note number="12" values="188" ticks="1056" durationTicks="95" ppq="96" velocity="0.835"/>
    </notes>
  </exercise>
  <exercise number="14">
    <scale>major</scale>
    <bpm>124</bpm>
    <lowestNote>38</lowestNote>
    <tonalities>4</tonalities>
    <video name="14t.mp4" size="2275831" type="video/mp4" volume="0.5">1686d65355494f23984924f4cb7e57604454ccb50b14c17a53c9c5a9b8bc0e76</video>
    <notes>
      <note number="1" values="78" ticks="33" durationTicks="51" ppq="96" velocity="0.843"/>
      <note number="2" values="68" ticks="97" durationTicks="49" ppq="96" velocity="0.906"/>
      <note number="3" values="188" ticks="144" durationTicks="130" ppq="96" velocity="0.906"/>
      <note number="4" values="68" ticks="288" durationTicks="73" ppq="96" velocity="0.906"/>
      <note number="5" values="78" ticks="348" durationTicks="176" ppq="96" velocity="0.906"/>
      <note number="6" values="58" ticks="535" durationTicks="95" ppq="96" velocity="0.906"/>
    </notes>
  </exercise>
</level>
